# xmcd
# 
# Track frame offsets:
#     150
#     18822
#     38169
#     57867
#     77716
#     92851
#     108150
#     131754
#     149577
#     176213
#     196833
#     215216
#     234531
#     259989
#     282938
#     303698
#     318863
#     340938
# 
# Disc length: 4767
# 
# Revision: 2
# Processed by: cddbd v1.5.2PL0 Copyright (c) Steve Scherf et al.
# Submitted via: fre:ac v1.0.17
# 
DISCID=0e129d12
DTITLE=Michael Schenker Group - Built To Destroy (1983)
DYEAR=0
DGENRE=Metal
TTITLE0=Rock My Nights Away (UK Mix)
TTITLE1=I'm Gonna Make You Mine (UK Mix)
TTITLE2=The Dogs of War (UK Mix)
TTITLE3=Systems Failing (UK Mix)
TTITLE4=Captain Nemo (UK Mix)
TTITLE5=Still Love That Little Devil (UK Mix)
TTITLE6=Red Sky (UK Mix)
TTITLE7=Time Waits (For No One) (UK Mix)
TTITLE8=Rock Will Never Die (Walk the Stage) (UK Mix)
TTITLE9=I'm Gonna Make You Mine (US Mix)
TTITLE10=Time Waits (For No One) (US Mix)
TTITLE11=Systems Failing (US Mix)
TTITLE12=Rock Will Never Die (Walk the Stage) (US Mix)
TTITLE13=Red Sky (US Mix)
TTITLE14=Rock My Nights Away (US Mix)
TTITLE15=Captain Nemo (US Mix)
TTITLE16=The Dogs of War (US Mix)
TTITLE17=Still Love That Little Devil (US Mix)
EXTD=
EXTT0=
EXTT1=
EXTT2=
EXTT3=
EXTT4=
EXTT5=
EXTT6=
EXTT7=
EXTT8=
EXTT9=
EXTT10=
EXTT11=
EXTT12=
EXTT13=
EXTT14=
EXTT15=
EXTT16=
EXTT17=
PLAYORDER=
